<?xml version="1.0" encoding="UTF-8"?>
<svg width="34px" height="34px" viewBox="0 0 34 34" version="1.1" xmlns="http://www.w3.org/2000/svg" xmlns:xlink="http://www.w3.org/1999/xlink">
    <!-- Generator: sketchtool 49.1 (51147) - http://www.bohemiancoding.com/sketch -->
    <title>5F3CA93E-F1C7-4B5D-AFA0-E0F07E4982D4</title>
    <desc>Created with sketchtool.</desc>
    <defs></defs>
    <g id="Page-1" stroke="none" stroke-width="1" fill="none" fill-rule="evenodd">
        <g id="Каталог-Иконки" transform="translate(-284.000000, -623.000000)">
            <g id="wheel" transform="translate(284.000000, 623.000000)">
                <circle id="Oval-5" fill="#FF6700" cx="17" cy="17" r="17"></circle>
                <path d="M21.2,22.1005377 C21.1605242,22.0760402 21.1243644,22.0459257 21.0927969,22.01075 C19.7402013,20.5105706 19.3460162,19.1317785 20.0047417,18.2677428 C20.3220364,18.7949356 20.7252364,19.2705505 21.2,19.6746374 L21.2,22.1005377 Z M17,14.0390469 C15.7119219,14.0390469 14.6465,12.6821094 14.5214844,10.8832812 C14.505875,10.6533125 14.6484219,10.442375 14.8681719,10.3725781 C16.2529531,9.93017187 17.7470938,9.93017187 19.1318281,10.3725781 C19.3515781,10.442375 19.494125,10.6533125 19.4785156,10.8832812 C19.3535,12.6821094 18.2880781,14.0390469 17,14.0390469 Z M14.9999844,17 C14.9999844,15.8969844 15.8974531,14.9999844 17,14.9999844 C18.1025469,14.9999844 19.0000156,15.8969844 19.0000156,17 C19.0000156,18.1030156 18.1025469,19.0000156 17,19.0000156 C15.8974531,19.0000156 14.9999844,18.1030156 14.9999844,17 Z M19.1308438,23.6675 C18.4385,23.8881875 17.7216875,23.9999844 17,23.9999844 C16.2783125,23.9999844 15.5615469,23.8881875 14.8691563,23.6675 C14.6494063,23.5971875 14.505875,23.38625 14.5214844,23.1562344 C14.6465,21.3569375 15.7119219,20 17,20 C18.2880781,20 19.3535,21.3569375 19.4785156,23.1562344 C19.494125,23.38625 19.3505938,23.5971875 19.1308438,23.6675 Z M13.8535156,15.8925781 C13.4550781,16.2910156 12.7675625,16.4990469 12.0419844,16.4990469 C11.4853438,16.4990469 10.9052656,16.3764687 10.4150469,16.1235312 C10.2148438,16.0200312 10.1083906,15.7954062 10.1552656,15.5747187 C10.4502031,14.1919062 11.1552969,12.9418906 12.1924063,11.9599531 C12.2900469,11.8671875 12.4335781,11.8095781 12.5556875,11.8237344 C12.6904531,11.829125 12.8173906,11.8881875 12.90725,11.9882656 C14.3476719,13.5859531 14.7011563,15.0454062 13.8535156,15.8925781 Z M12.90725,22.0898281 C12.8173906,22.1899531 12.6904531,22.2495312 12.5556875,22.254875 C12.5498281,22.2553906 12.5429844,22.2553906 12.5361406,22.2553906 C12.4082188,22.2553906 12.2851719,22.2065469 12.1924063,22.1186562 C11.1552969,21.1367187 10.4502031,19.8867031 10.1552656,18.5034219 C10.1083906,18.2827344 10.2148438,18.0581094 10.4150469,17.9546094 C11.5420156,17.3730312 13.1494063,17.4814531 13.8535156,18.1855625 C14.7002188,19.0327344 14.3466875,20.4921875 12.90725,22.0898281 Z" id="Combined-Shape" fill="#FFFFFF"></path>
                <path d="M26.8836688,10.2013703 C25.9902096,10.2615046 25.2,10.9949034 25.2,12 L25.2,13.2913405 C25.0790255,13.0249118 24.9454365,12.7653776 24.8,12.5135053 L24.8,12 C24.8,10.9108571 23.8721102,10.1407506 22.8904335,10.2006428 C21.3107717,8.83030815 19.250577,8 17,8 C12.0371094,8 8,12.0375781 8,17 C8,21.9624219 12.0371094,26 17,26 C18.5159344,26 19.9454915,25.6232855 21.2,24.9585678 L21.2,27.053235 C21.2,27.4446982 21.2606227,27.8215068 21.3729654,28.1753143 C20.0173701,28.7075931 18.5422099,29 17,29 C10.3827969,29 5,23.6166875 5,17 C5,10.3833125 10.3827969,5 17,5 C21.0950108,5 24.7172849,7.06163017 26.8836688,10.2013703 Z" id="Combined-Shape" fill="#FFFFFF"></path>
                <path d="M21,15.372645 C21,13.9314892 21.8043973,12.6732097 23,12 L23,14.8859538 L25,15.8593363 L27,14.8859538 L27,12 C28.1956027,12.6732097 29,13.9314892 29,15.372645 C29,16.8138008 28.1956027,18.0720803 27,18.74529 L27,27.053235 C27,28.1284036 26.1045695,29 25,29 C23.8954305,29 23,28.1284036 23,27.053235 L23,18.74529 C21.8043973,18.0720803 21,16.8138008 21,15.372645 Z M25,27.75 C25.4142136,27.75 25.75,27.4142136 25.75,27 C25.75,26.5857864 25.4142136,26.25 25,26.25 C24.5857864,26.25 24.25,26.5857864 24.25,27 C24.25,27.4142136 24.5857864,27.75 25,27.75 Z" id="Path" fill="#FFFFFF" fill-rule="nonzero"></path>
            </g>
        </g>
    </g>
</svg>