<?xml version="1.0" encoding="UTF-8"?>
<svg width="34px" height="34px" viewBox="0 0 34 34" version="1.1" xmlns="http://www.w3.org/2000/svg" xmlns:xlink="http://www.w3.org/1999/xlink">
    <!-- Generator: Sketch 59 (86127) - https://sketch.com -->
    <title>icon-guarantee</title>
    <desc>Created with Sketch.</desc>
    <g id="Page-1" stroke="none" stroke-width="1" fill="none" fill-rule="evenodd">
        <g id="Иконки-на-шины" transform="translate(-229.000000, -278.000000)">
            <g id="icon-petrol-nolimits" transform="translate(229.000000, 278.000000)">
                <circle id="Oval" fill="#3CD474" fill-rule="nonzero" cx="17" cy="17" r="17"></circle>
                <path d="M16.794188,6.09333008 C14.7408132,7.0216182 13.1427505,7.65717484 12,8 C10.8982988,8.33051036 9.37340898,8.64285541 7.42533051,8.93703517 C7.18079905,8.97397289 7,9.1841243 7,9.43142984 L7,19.8827813 L7,19.8827813 C7,21.2296875 7.53898402,22.6084688 8.60189407,23.9808281 C9.41368286,25.0289531 10.5368249,26.0814375 11.9399996,27.1090781 C14.2972497,28.8353906 16.6184532,29.8943906 16.7161218,29.9385938 C16.8064235,29.9795156 16.9032581,30 17.0000927,30 C17.0969272,30 17.1937618,29.9795625 17.2840635,29.9385938 C17.3816858,29.8943906 19.702843,28.8353906 22.060093,27.1090781 C23.4632677,26.0814375 24.5863635,25.0289531 25.3981986,23.9808281 C26.4611086,22.6085156 27,21.2297344 27,19.8827813 L27,9.430954 C26.9999198,9.18383641 26.8193646,8.97379626 26.5750473,8.93669927 C24.6140449,8.63894184 23.0890292,8.32670875 22,8 C20.8707229,7.66121688 19.2726377,7.02558346 17.2057443,6.09309975 L17.2057119,6.09317166 C17.0748753,6.03414444 16.9249791,6.03420215 16.794188,6.09333008 Z" id="Path" fill="#FFFFFF" fill-rule="nonzero"></path>
                <polyline id="Path-3" stroke="#3CD474" stroke-width="2.8" points="12 17 15 20 21.5 13.5"></polyline>
            </g>
        </g>
    </g>
</svg>